<?xml version="1.0" encoding="UTF-8" standalone="no"?><!-- Generator: Gravit.io --><svg xmlns="http://www.w3.org/2000/svg" xmlns:xlink="http://www.w3.org/1999/xlink" style="isolation:isolate" viewBox="0 0 400 400" width="400pt" height="400pt"><defs><clipPath id="_clipPath_1LKFWJDHdEJy1EhUmTu7CC0mMVbpvRO1"><rect width="400" height="400"/></clipPath></defs><g clip-path="url(#_clipPath_1LKFWJDHdEJy1EhUmTu7CC0mMVbpvRO1)"><circle vector-effect="non-scaling-stroke" cx="200" cy="200" r="79.99999999999999" fill="rgb(77,77,77)"/><clipPath id="_clipPath_aNRGDTuFH9lKyxrICfIjo2VRtqIxF8ft"><circle vector-effect="non-scaling-stroke" cx="200" cy="200" r="79.99999999999999" fill="rgb(77,77,77)"/></clipPath><g clip-path="url(#_clipPath_aNRGDTuFH9lKyxrICfIjo2VRtqIxF8ft)"><ellipse vector-effect="non-scaling-stroke" cx="200.00000000000003" cy="200" rx="74.64124108590497" ry="74.64095261965997" fill="rgb(94,94,94)"/><ellipse vector-effect="non-scaling-stroke" cx="200" cy="200" rx="64.641241085905" ry="64.64095261965997" fill="rgb(140,139,139)"/><path d=" M 209.971 269.282 C 240.633 264.912 264.911 240.633 269.282 209.971 C 264.097 209.606 260 205.278 260 200 C 260 194.722 264.097 190.394 269.282 190.029 C 264.911 159.367 240.633 135.088 209.971 130.718 C 209.605 135.903 205.277 140 200 140 C 194.723 140 190.395 135.903 190.029 130.718 C 159.367 135.088 135.089 159.367 130.718 190.029 C 135.903 190.394 140 194.722 140 200 C 140 205.278 135.903 209.606 130.718 209.971 C 135.089 240.633 159.367 264.912 190.029 269.282 C 190.395 264.097 194.723 260 200 260 C 205.277 260 209.605 264.097 209.971 269.282 Z " fill="rgb(136,255,243)"/><clipPath id="_clipPath_woXGvKle2ubWD3shQ1nM2Ru7A9C4M0Ec"><path d=" M 209.971 269.282 C 240.633 264.912 264.911 240.633 269.282 209.971 C 264.097 209.606 260 205.278 260 200 C 260 194.722 264.097 190.394 269.282 190.029 C 264.911 159.367 240.633 135.088 209.971 130.718 C 209.605 135.903 205.277 140 200 140 C 194.723 140 190.395 135.903 190.029 130.718 C 159.367 135.088 135.089 159.367 130.718 190.029 C 135.903 190.394 140 194.722 140 200 C 140 205.278 135.903 209.606 130.718 209.971 C 135.089 240.633 159.367 264.912 190.029 269.282 C 190.395 264.097 194.723 260 200 260 C 205.277 260 209.605 264.097 209.971 269.282 Z " fill="rgb(136,255,243)"/></clipPath><g clip-path="url(#_clipPath_woXGvKle2ubWD3shQ1nM2Ru7A9C4M0Ec)"><circle vector-effect="non-scaling-stroke" cx="220" cy="180" r="50.000000000000014" fill="rgb(202,255,250)"/><circle vector-effect="non-scaling-stroke" cx="200.00000000000003" cy="200" r="50" fill="rgb(134,221,212)"/><circle vector-effect="non-scaling-stroke" cx="220.00000000000003" cy="180" r="30" fill="rgb(221,255,252)"/></g></g></g></svg>