<?xml version="1.0" encoding="UTF-8" standalone="no"?><!-- Generator: Gravit.io --><svg xmlns="http://www.w3.org/2000/svg" xmlns:xlink="http://www.w3.org/1999/xlink" style="isolation:isolate" viewBox="0 0 400 400" width="400pt" height="400pt"><defs><clipPath id="_clipPath_1D6dN7gRqF77i2hFrSeQkMjvCPxgmQTD"><rect width="400" height="400"/></clipPath></defs><g clip-path="url(#_clipPath_1D6dN7gRqF77i2hFrSeQkMjvCPxgmQTD)"><path d=" M 350 135 C 350 75.5 282.787 35 200 35 C 117.213 35 50 76.5 50 135 Q 50 193.5 80 295 Q 120.5 365 200 365 Q 279.5 365 320 295 Q 350 194.5 350 135 Z " fill="rgb(47,47,47)"/><clipPath id="_clipPath_qc7XSDNmEeEKYVGkbfq36Hif8DzNw1hQ"><path d=" M 350 135 C 350 75.5 282.787 35 200 35 C 117.213 35 50 76.5 50 135 Q 50 193.5 80 295 Q 120.5 365 200 365 Q 279.5 365 320 295 Q 350 194.5 350 135 Z " fill="rgb(47,47,47)"/></clipPath><g clip-path="url(#_clipPath_qc7XSDNmEeEKYVGkbfq36Hif8DzNw1hQ)"><path d=" M 350 135 C 350 75.5 282.787 35 200 35 C 117.213 35 50 76.5 50 135 Q 50 193.5 80 295 Q 120.5 365 200 365 Q 279.5 365 320 295 Q 350 194.5 350 135 Z " fill="rgb(21,21,21)"/><path d=" M 190 90 L 160 60 L 115 60 L 55 20 L 55 40 L 103.25 80 L 155 80 L 190 115 L 210 115 L 245 80 L 296.75 80 L 345 40 L 345 20 L 285 60 L 240 60 L 210 90 L 190 90 L 190 90 Z  M 55 225 L 110 270 L 165 285 L 175 275 L 185 275 L 165 295 L 110 280 L 55 235 L 55 225 L 55 225 Z  M 345 225 L 290 270 L 235 285 L 225 275 L 215 275 L 235 295 L 290 280 L 345 235 L 345 225 Z " fill-rule="evenodd" fill="rgb(47,47,47)"/><path d=" M 340 131.97 C 340 74.273 277.268 35 200 35 C 122.732 35 60 75.242 60 131.97 Q 60 188.697 88 287.121 Q 125.8 355 200 355 Q 274.2 355 312 287.121 Q 340 189.667 340 131.97 Z " fill="rgb(47,47,47)"/><clipPath id="_clipPath_StSUGklN5dEpWU6UvfXBRLWEwDjXJ5Ll"><path d=" M 340 131.97 C 340 74.273 277.268 35 200 35 C 122.732 35 60 75.242 60 131.97 Q 60 188.697 88 287.121 Q 125.8 355 200 355 Q 274.2 355 312 287.121 Q 340 189.667 340 131.97 Z " fill="rgb(47,47,47)"/></clipPath><g clip-path="url(#_clipPath_StSUGklN5dEpWU6UvfXBRLWEwDjXJ5Ll)"><path d=" M 190 90 L 160 60 L 115 60 L 55 20 L 55 40 L 103.25 80 L 155 80 L 190 115 L 210 115 L 245 80 L 296.75 80 L 345 40 L 345 20 L 285 60 L 240 60 L 210 90 L 190 90 L 190 90 Z  M 55 225 L 110 270 L 165 285 L 175 275 L 185 275 L 165 295 L 110 280 L 55 235 L 55 225 L 55 225 Z  M 345 225 L 290 270 L 235 285 L 225 275 L 215 275 L 235 295 L 290 280 L 345 235 L 345 225 Z " fill-rule="evenodd" fill="rgb(66,65,65)"/></g></g></g></svg>